<svg xmlns="http://www.w3.org/2000/svg" width="430" height="430" style="width:100%;height:100%;transform:translate3d(0,0,0);content-visibility:visible" viewBox="0 0 430 430"><defs><clipPath id="a"><path d="M0 0h430v430H0z"/></clipPath><clipPath id="d"><path d="M0 0h430v430H0z"/></clipPath><clipPath id="c"><path d="M0 0h430v430H0z"/></clipPath><clipPath id="b"><path d="M0 0h430v430H0z"/></clipPath></defs><g fill="none" clip-path="url(#a)"><g clip-path="url(#b)" style="display:none"><path class="primary" style="display:none"/><path class="secondary" style="display:none"/></g><g stroke="#233453" clip-path="url(#c)" style="display:block"><path stroke-linejoin="round" stroke-width="12" d="M-77-114.854c0 29.56 16.644 55.232 41.067 68.147v194.786c0 19.286 15.628 34.921 34.906 34.921h2.054c19.278 0 34.906-15.635 34.906-34.921V-46.707C60.356-59.622 77-85.294 77-114.854S60.356-170.085 35.933-183v56.848c0 8.509-6.895 15.407-15.4 15.407h-41.066c-8.505 0-15.4-6.898-15.4-15.407V-183C-60.356-170.085-77-144.414-77-114.854z" class="primary" style="display:block" transform="rotate(-45 370.65 -150.528)"/><path stroke-linecap="round" stroke-width="18" d="M0 4.5v-9" class="secondary" style="display:block" transform="rotate(-45 538.54 -221.486)"/></g><g clip-path="url(#d)" style="display:none"><g style="display:none"><path class="primary"/><path class="primary"/></g><path class="secondary" style="display:none"/></g></g></svg>